<?xml version="1.0" standalone="no"?>
<!DOCTYPE svg PUBLIC "-//W3C//DTD SVG 20010904//EN"
 "http://www.w3.org/TR/2001/REC-SVG-20010904/DTD/svg10.dtd">
<svg version="1.0" xmlns="http://www.w3.org/2000/svg"
 width="210.000000pt" height="210.000000pt" viewBox="0 0 210.000000 210.000000"
 preserveAspectRatio="xMidYMid meet">

<g transform="translate(0.000000,210.000000) scale(0.100000,-0.100000)"
fill="#000000" stroke="none">
<path d="M905 2090 c-345 -54 -639 -268 -791 -575 -82 -165 -107 -273 -107
-460 0 -105 5 -172 16 -223 90 -393 380 -695 767 -800 84 -23 114 -26 260 -26
146 0 176 3 261 26 372 100 657 384 756 754 24 88 27 117 27 264 0 146 -3 176
-26 260 -52 192 -145 351 -288 490 -140 136 -322 235 -509 276 -84 18 -288 26
-366 14z m250 -30 c444 -50 798 -371 891 -805 51 -241 5 -512 -123 -729 -65
-111 -238 -284 -349 -349 -521 -308 -1187 -102 -1445 447 -150 321 -119 699
81 997 56 82 187 213 269 269 132 89 298 151 452 169 105 12 123 12 224 1z"/>
<path d="M883 1986 c-192 -37 -367 -129 -503 -266 -337 -336 -372 -869 -83
-1247 128 -168 284 -274 502 -340 77 -23 103 -26 246 -27 138 -1 172 2 244 22
276 76 508 270 627 526 71 155 101 368 75 536 -60 380 -334 683 -710 782 -99
26 -299 33 -398 14z m386 -46 c92 -22 222 -80 298 -131 69 -47 178 -154 229
-225 58 -80 119 -211 145 -309 29 -106 32 -325 6 -429 -73 -292 -284 -539
-550 -646 -130 -52 -198 -64 -352 -64 -163 1 -249 20 -383 84 -106 51 -161 88
-246 169 -205 197 -310 484 -277 759 52 424 373 754 791 812 91 12 240 4 339
-20z"/>
<path d="M993 1858 c15 -12 37 -93 37 -140 0 -27 -44 -68 -73 -68 -46 0 -67
29 -79 108 -10 62 -9 75 3 83 9 6 -2 7 -31 3 -47 -7 -65 -14 -37 -14 10 0 17
-1 17 -2 1 -2 7 -39 15 -83 20 -111 55 -136 140 -101 50 21 58 44 50 142 -7
82 -8 84 -33 84 -23 0 -24 -1 -9 -12z"/>
<path d="M1135 1856 c18 -13 18 -15 0 -95 -13 -57 -25 -87 -39 -97 l-20 -14
21 0 c12 0 30 -3 40 -7 16 -6 16 -5 5 10 -11 13 -11 27 -2 74 20 95 22 95 81
-15 29 -56 55 -100 57 -98 2 2 14 44 28 93 13 48 32 94 41 101 15 11 15 12 -4
12 -12 0 -29 3 -38 6 -15 6 -15 4 -4 -14 10 -16 10 -31 0 -76 -7 -31 -15 -56
-19 -56 -4 0 -27 39 -52 86 -29 57 -52 89 -68 95 -35 13 -48 11 -27 -5z"/>
<path d="M1418 1767 c12 -14 8 -27 -28 -92 -23 -42 -52 -80 -64 -85 -13 -5
-15 -9 -6 -10 8 0 26 -9 40 -20 31 -25 44 -25 29 -2 -9 14 -7 27 11 63 39 75
70 120 80 114 6 -3 10 -4 10 -1 0 3 -19 15 -42 27 -32 16 -39 18 -30 6z"/>
<path d="M600 1735 c-15 -16 -18 -24 -9 -20 11 4 30 -9 58 -41 47 -53 51 -67
19 -59 -52 11 -143 25 -162 25 -12 0 -32 -10 -46 -21 -14 -11 -19 -18 -12 -14
7 3 21 4 31 0 21 -6 107 -111 112 -138 4 -15 7 -14 34 7 l30 24 -26 -5 c-21
-4 -33 4 -69 47 -23 28 -40 53 -37 56 3 3 51 -2 107 -11 56 -9 104 -15 107
-12 3 3 -20 37 -50 75 -30 38 -57 79 -59 91 l-3 23 -25 -27z"/>
<path d="M1546 1696 c3 -7 -13 -59 -36 -116 -22 -56 -39 -104 -37 -107 3 -2
53 14 112 36 59 23 112 38 119 34 6 -3 -2 8 -18 25 -17 18 -31 32 -31 32 -1 0
0 -10 2 -23 5 -25 -5 -32 -94 -66 l-53 -21 20 51 c36 90 50 111 68 104 9 -3 1
10 -17 29 -38 40 -43 42 -35 22z"/>
<path d="M921 1564 c-79 -21 -129 -46 -193 -95 -253 -193 -279 -567 -55 -791
212 -212 542 -213 752 -3 210 210 208 543 -3 752 -130 129 -329 183 -501 137z
m294 -45 c350 -129 447 -559 186 -820 -261 -261 -691 -164 -820 184 -100 272
67 579 357 652 77 20 201 13 277 -16z"/>
<path d="M1058 1430 c-2 -22 0 -40 4 -40 5 0 8 18 8 40 0 22 -2 40 -4 40 -2 0
-6 -18 -8 -40z"/>
<path d="M953 1420 c6 -22 14 -40 18 -40 4 0 5 9 2 20 -4 14 0 20 11 20 9 0
16 4 16 10 0 5 -7 7 -15 4 -8 -4 -17 1 -21 10 -13 33 -21 14 -11 -24z"/>
<path d="M1170 1412 l5 -47 3 39 c2 21 0 42 -5 47 -4 4 -6 -13 -3 -39z"/>
<path d="M867 1405 c12 -8 24 -25 26 -38 4 -20 4 -20 6 4 1 28 -15 49 -38 49
-11 0 -9 -4 6 -15z"/>
<path d="M1243 1376 c-21 -33 -17 -56 12 -56 5 0 4 4 -3 8 -16 10 -4 44 12 35
6 -3 8 -3 4 2 -4 4 -3 16 3 26 17 32 -5 20 -28 -15z"/>
<path d="M1000 1390 c-9 -6 -10 -10 -3 -10 6 0 15 5 18 10 8 12 4 12 -15 0z"/>
<path d="M810 1376 c0 -16 36 -49 47 -45 4 2 -4 16 -19 31 -16 15 -28 21 -28
14z"/>
<path d="M1306 1321 c-15 -16 -23 -32 -18 -35 6 -3 12 1 16 9 10 28 26 15 20
-17 -4 -30 -4 -31 6 -9 6 14 8 31 5 39 -3 8 0 21 6 28 22 27 -7 14 -35 -15z"/>
<path d="M767 1306 c25 -30 30 -32 46 -18 9 8 17 20 17 25 0 6 -6 3 -12 -6 -9
-11 -18 -14 -27 -8 -13 8 -13 12 0 28 13 16 12 17 -3 5 -11 -9 -18 -10 -23 -2
-3 5 -11 10 -17 10 -5 0 3 -15 19 -34z"/>
<path d="M1356 1315 c-3 -8 -1 -15 4 -15 6 0 10 7 10 15 0 8 -2 15 -4 15 -2 0
-6 -7 -10 -15z"/>
<path d="M696 1282 c-2 -4 7 -8 22 -7 18 0 30 -8 39 -25 7 -14 13 -19 13 -12
0 27 -21 52 -45 52 -13 0 -26 -4 -29 -8z"/>
<path d="M1367 1256 c-20 -12 -34 -25 -31 -29 7 -7 74 34 74 46 0 9 3 10 -43
-17z"/>
<path d="M677 1243 c-4 -3 10 -14 30 -25 24 -13 38 -16 44 -9 5 6 6 9 3 6 -4
-3 -21 4 -39 15 -18 11 -35 17 -38 13z"/>
<path d="M1410 1236 c0 -2 7 -7 16 -10 8 -3 12 -2 9 4 -6 10 -25 14 -25 6z"/>
<path d="M1397 1191 c-21 -9 -35 -20 -31 -24 4 -4 12 -3 18 2 6 4 24 13 41 18
16 5 25 12 20 15 -6 3 -27 -2 -48 -11z"/>
<path d="M766 1187 c3 -10 9 -15 12 -12 3 3 0 11 -7 18 -10 9 -11 8 -5 -6z"/>
<path d="M644 1149 c-4 -7 0 -9 14 -5 12 4 32 2 44 -5 21 -11 22 -11 9 4 -15
19 -56 23 -67 6z"/>
<path d="M855 1150 c-3 -6 1 -7 9 -4 18 7 21 14 7 14 -6 0 -13 -4 -16 -10z"/>
<path d="M806 1135 c-3 -8 -1 -15 4 -15 6 0 10 7 10 15 0 8 -2 15 -4 15 -2 0
-6 -7 -10 -15z"/>
<path d="M990 1101 c0 -24 -73 -61 -121 -61 -39 0 -67 14 -50 24 19 12 13 48
-6 44 -11 -2 -17 -11 -15 -23 1 -11 3 -31 3 -45 2 -30 14 -40 52 -40 17 0 39
-11 55 -27 l27 -27 -36 -6 c-48 -8 -185 -106 -200 -143 -8 -20 -9 -34 -1 -51
10 -22 16 -23 163 -29 247 -11 292 -9 361 14 35 12 65 26 66 30 2 5 16 9 30 9
33 0 69 20 37 20 -17 0 -17 2 -5 10 12 8 10 10 -8 10 -13 0 -20 4 -17 10 4 6
11 7 17 4 6 -4 8 -2 4 4 -3 6 -1 14 6 18 8 5 4 10 -11 15 -28 11 -37 36 -22
60 11 18 6 19 -105 19 -102 0 -115 2 -104 15 7 8 22 15 35 15 31 0 77 45 73
72 -2 11 -13 27 -25 35 -20 14 -24 13 -47 -10 l-25 -25 -38 19 c-20 10 -43 19
-49 19 -7 0 -10 8 -7 20 4 15 0 20 -16 20 -14 0 -21 -6 -21 -19z m210 -66 c0
-16 -38 -50 -46 -42 -4 4 -1 13 5 21 7 8 10 20 6 26 -3 5 -3 15 0 20 8 13 35
-6 35 -25z m-122 3 c3 -13 -3 -18 -20 -18 -42 0 -67 11 -61 27 8 21 77 13 81
-9z m18 -63 c-11 -24 -46 -42 -46 -24 0 19 2 24 11 22 5 -2 8 0 8 5 -2 14 1
18 20 19 16 1 17 -2 7 -22z m-129 -59 c-2 -6 -23 -12 -47 -14 -24 -2 -56 -12
-71 -23 -15 -10 -32 -19 -38 -19 -6 0 -11 -4 -11 -10 0 -5 -7 -10 -15 -10 -40
0 80 87 126 92 42 4 61 -1 56 -16z m193 4 c0 -5 9 -10 19 -10 11 0 23 5 26 10
3 6 27 10 53 10 54 -1 58 4 -74 -79 -79 -50 -85 -57 -82 -83 4 -25 3 -27 -12
-13 -20 18 -50 20 -50 3 0 -6 -3 -9 -6 -6 -3 4 -1 16 6 27 6 12 7 21 1 21 -5
0 -12 -7 -15 -16 -6 -17 -57 -16 -56 1 0 6 4 10 9 10 5 0 13 3 17 8 4 4 -13 6
-37 6 -24 -1 -36 -3 -26 -6 19 -5 21 -12 8 -32 -13 -21 -41 -5 -41 23 0 22 -5
25 -42 29 -24 2 -10 4 30 3 39 0 72 1 72 4 0 3 31 4 68 2 60 -4 73 -1 105 21
21 14 43 28 50 30 24 9 -2 18 -59 21 -74 3 -87 26 -15 26 28 0 51 -4 51 -10z
m159 -65 c12 -7 5 -25 -10 -25 -5 0 -9 9 -9 19 0 11 -5 23 -10 26 -6 4 -7 11
-4 17 5 7 10 4 15 -9 4 -12 12 -24 18 -28z m-380 31 c-3 -3 -24 -9 -47 -14
-36 -9 -41 -8 -31 4 6 8 27 14 47 14 19 0 33 -2 31 -4z m182 -26 c-24 -21 -94
-27 -120 -11 -16 10 1 24 21 16 7 -3 27 -1 43 4 17 5 41 10 55 10 l25 0 -24
-19z m-167 1 c3 -5 -6 -8 -19 -8 -14 0 -25 3 -25 8 0 5 9 9 19 9 11 0 22 -4
25 -9z m-174 -55 c0 -19 -16 -36 -34 -36 -28 0 -36 8 -29 26 4 12 63 21 63 10z
m96 -12 c-3 -9 -6 -21 -6 -27 0 -7 -4 -6 -10 3 -8 13 -10 13 -10 1 0 -12 -3
-12 -12 -3 -7 7 -20 12 -30 12 -11 0 -15 5 -12 15 4 10 20 15 46 15 33 0 39
-3 34 -16z"/>
<path d="M1423 1097 c-44 -30 -42 -42 2 -16 19 12 35 25 35 30 0 11 1 12 -37
-14z"/>
<path d="M700 1090 c-8 -5 -26 -7 -40 -4 -20 4 -22 3 -10 -5 21 -15 45 -13 60
4 14 17 11 19 -10 5z"/>
<path d="M695 1051 c-3 -6 -19 -11 -36 -11 -16 0 -29 -4 -29 -8 0 -12 60 -6
73 7 6 6 8 13 5 16 -3 4 -9 2 -13 -4z"/>
<path d="M1390 1022 c0 -5 18 -12 40 -14 22 -2 40 0 40 4 0 5 -11 8 -24 8 -13
0 -31 3 -40 6 -9 3 -16 2 -16 -4z"/>
<path d="M653 1002 c-42 -6 -24 -17 22 -14 25 2 45 8 45 13 0 8 -16 9 -67 1z"/>
<path d="M1376 955 c-3 -9 2 -11 16 -7 18 4 20 2 16 -16 -4 -12 -2 -22 3 -22
5 0 9 7 9 15 0 18 12 19 28 3 9 -9 12 -9 12 3 0 20 -77 42 -84 24z"/>
<path d="M646 944 c-5 -14 -4 -15 8 -5 8 7 21 9 27 5 8 -4 9 -3 5 4 -10 17
-33 15 -40 -4z"/>
<path d="M680 915 c-23 -9 -28 -14 -15 -14 11 0 34 6 50 14 39 17 11 18 -35 0z"/>
<path d="M1370 830 c-9 -6 -10 -10 -3 -10 6 0 15 5 18 10 8 12 4 12 -15 0z"/>
<path d="M933 640 c0 -30 2 -43 4 -27 2 15 2 39 0 55 -2 15 -4 2 -4 -28z"/>
<path d="M1026 675 c4 -8 8 -15 10 -15 2 0 4 7 4 15 0 8 -4 15 -10 15 -5 0 -7
-7 -4 -15z"/>
<path d="M1115 679 c8 -21 -13 -35 -28 -20 -18 18 -22 13 -22 -22 0 -39 11
-57 33 -56 12 0 11 3 -5 9 -24 10 -31 34 -13 45 5 3 18 -3 30 -15 20 -20 20
-20 20 0 0 11 -5 20 -11 20 -8 0 -7 5 1 15 10 13 11 18 1 28 -10 9 -11 8 -6
-4z"/>
<path d="M1186 675 c4 -8 8 -15 10 -15 2 0 4 7 4 15 0 8 -4 15 -10 15 -5 0 -7
-7 -4 -15z"/>
<path d="M982 665 c2 -11 13 -24 26 -30 12 -5 22 -19 22 -30 0 -16 2 -17 9 -6
12 18 -4 51 -24 51 -8 0 -19 8 -25 18 -10 16 -10 15 -8 -3z"/>
<path d="M1188 638 c7 -9 9 -24 6 -34 -5 -15 -4 -16 5 -8 16 15 11 46 -9 52
-12 4 -13 3 -2 -10z"/>
<path d="M970 611 c0 -5 5 -13 10 -16 6 -3 10 -2 10 4 0 5 -4 13 -10 16 -5 3
-10 2 -10 -4z"/>
<path d="M382 1497 c-37 -21 -62 -68 -62 -114 0 -33 6 -48 30 -71 67 -67 161
-45 190 44 30 90 -79 186 -158 141z m98 -44 c37 -25 49 -45 50 -77 1 -78 -102
-92 -177 -23 -50 45 -12 117 62 117 22 0 52 -8 65 -17z"/>
<path d="M1737 1471 c-6 -24 -142 -95 -168 -88 -11 3 -19 4 -19 3 0 -1 15 -31
33 -66 28 -56 36 -65 62 -68 l30 -3 -32 20 c-28 17 -53 48 -53 65 0 7 81 49
85 44 19 -23 25 -51 13 -65 -11 -13 -7 -13 22 2 24 12 30 20 20 23 -16 5 -40
31 -40 44 0 8 53 38 68 38 5 0 15 -14 22 -31 11 -25 11 -35 1 -51 -11 -17 -10
-18 9 -8 11 6 20 12 20 15 0 2 -15 35 -34 74 -25 52 -35 66 -39 52z"/>
<path d="M250 1210 c-11 -34 -11 -42 4 -65 27 -41 67 -34 112 20 37 46 60 55
82 33 28 -28 1 -74 -51 -90 -17 -5 -13 -6 15 -7 35 -1 38 2 49 38 14 46 1 77
-37 91 -35 14 -66 -2 -97 -49 -29 -43 -47 -50 -67 -26 -17 21 -3 54 33 76 l32
19 -31 0 c-27 0 -32 -5 -44 -40z"/>
<path d="M1828 1240 c-4 -12 -142 -33 -175 -27 -21 4 -24 2 -19 -17 3 -11 6
-30 6 -40 0 -18 1 -19 13 -3 6 10 29 20 50 24 32 5 37 3 37 -13 0 -11 -21 -37
-46 -59 -36 -32 -45 -45 -40 -61 6 -19 10 -17 52 24 42 40 47 42 63 28 24 -22
54 -20 76 4 15 16 16 30 10 85 -6 58 -17 82 -27 55z m22 -70 c0 -11 -9 -29
-20 -40 -32 -32 -62 -24 -73 21 -9 34 -2 39 50 39 36 0 43 -3 43 -20z"/>
<path d="M251 1063 c-21 -4 -23 -9 -18 -41 3 -21 9 -65 13 -99 7 -63 7 -63 38
-62 21 1 25 3 11 6 -44 11 -50 69 -7 77 83 16 155 18 163 5 6 -10 8 -7 8 11
-2 33 -16 90 -18 68 -2 -25 -27 -35 -113 -43 l-78 -7 0 32 c0 20 7 38 18 46 9
7 15 13 12 12 -3 0 -16 -3 -29 -5z"/>
<path d="M1644 975 c-13 -31 -13 -39 0 -64 29 -56 94 -47 132 18 22 37 43 46
62 27 23 -23 7 -65 -31 -81 l-32 -14 30 -1 c23 0 33 6 43 27 26 57 3 103 -51
103 -21 0 -35 -11 -59 -45 -35 -50 -70 -59 -88 -25 -15 27 3 58 43 75 l32 14
-33 1 c-28 0 -35 -5 -48 -35z"/>
<path d="M467 835 c19 -19 33 -40 31 -47 -2 -7 -21 -21 -42 -32 -44 -22 -59
-11 -53 36 l3 27 -28 -17 c-17 -10 -23 -18 -16 -21 14 -4 38 -31 38 -43 0 -4
-14 -15 -31 -23 -22 -12 -34 -13 -44 -5 -20 17 -28 60 -13 78 12 13 10 14 -9
3 -13 -6 -23 -13 -23 -15 0 -2 16 -37 35 -77 19 -42 34 -65 35 -53 0 17 17 29
81 58 45 21 87 35 94 33 8 -4 4 14 -10 48 -26 65 -42 85 -65 85 -14 0 -10 -8
17 -35z"/>
<path d="M1602 818 c-6 -17 -9 -34 -7 -37 3 -2 5 1 5 7 0 7 6 12 14 12 29 0
175 -63 178 -77 2 -8 10 6 19 31 15 42 15 44 -2 33 -14 -9 -27 -8 -56 2 -32
12 -116 48 -133 58 -3 2 -11 -11 -18 -29z"/>
<path d="M1533 697 c-30 -43 -30 -44 -7 -39 16 3 42 -10 89 -44 36 -26 65 -50
65 -52 0 -14 -25 -45 -43 -52 -20 -7 -20 -9 -4 -15 10 -4 19 -6 21 -4 65 89
106 151 106 157 0 5 -10 17 -21 28 -22 19 -22 19 -9 -5 14 -27 0 -71 -23 -71
-8 0 -43 22 -78 48 -46 35 -64 54 -63 70 0 12 0 22 -1 22 -1 0 -15 -20 -32
-43z"/>
<path d="M573 678 c10 -28 0 -42 -64 -98 -59 -51 -60 -52 -80 -34 -13 12 -19
27 -16 42 4 21 3 22 -14 6 -18 -16 -16 -20 47 -90 37 -41 69 -74 73 -74 3 0
15 8 26 17 20 15 20 15 -2 10 -24 -5 -63 17 -63 37 0 8 29 39 65 71 46 40 70
55 83 50 9 -3 2 10 -18 32 -19 21 -37 40 -39 43 -2 3 -1 -3 2 -12z"/>
<path d="M1390 557 c-25 -16 -30 -23 -18 -25 32 -6 57 -64 60 -139 3 -70 3
-70 25 -54 14 11 17 17 8 19 -22 5 -36 92 -15 92 18 0 68 -29 77 -44 6 -11 15
-9 43 10 30 21 32 24 12 24 -36 0 -136 56 -151 83 -8 14 -11 33 -8 41 8 20 9
20 -33 -7z"/>
<path d="M664 524 c-30 -29 -27 -55 11 -111 25 -37 24 -57 -3 -68 -19 -7 -62
36 -62 63 -1 15 -2 14 -12 -2 -9 -16 -6 -24 21 -48 37 -33 50 -35 85 -7 32 25
33 43 1 94 -33 53 -32 83 1 91 34 9 57 -15 58 -61 1 -42 3 -43 17 -8 8 22 6
30 -18 55 -33 35 -66 36 -99 2z"/>
<path d="M798 329 c-9 -21 -13 -41 -8 -44 4 -3 10 5 13 17 5 18 8 19 21 8 11
-8 16 -9 16 -1 0 6 -4 11 -10 11 -14 0 -12 28 2 32 8 3 7 6 -3 10 -10 4 -20
-7 -31 -33z"/>
<path d="M750 345 c0 -8 7 -15 15 -15 8 0 15 7 15 15 0 8 -7 15 -15 15 -8 0
-15 -7 -15 -15z"/>
<path d="M1310 352 c0 -13 59 -63 64 -54 3 5 -11 20 -30 35 -19 16 -34 24 -34
19z"/>
<path d="M1377 354 c-8 -8 1 -24 14 -24 5 0 9 7 9 15 0 15 -12 20 -23 9z"/>
<path d="M883 290 c-10 -38 -9 -41 14 -46 13 -4 27 -4 30 0 4 3 -3 6 -15 6
-25 0 -26 3 -13 48 5 17 6 32 2 32 -4 0 -12 -18 -18 -40z"/>
<path d="M1209 325 c-8 -7 13 -85 22 -85 4 0 3 17 -2 38 -6 20 -11 41 -12 45
-1 5 -5 6 -8 2z"/>
<path d="M1264 314 c19 -19 20 -35 4 -54 -11 -12 -10 -12 5 -1 9 7 17 21 17
30 0 18 -18 41 -33 41 -5 0 -1 -7 7 -16z"/>
<path d="M1152 275 c2 -26 8 -45 15 -45 8 0 9 9 2 35 -6 19 -7 40 -4 45 3 6 1
10 -5 10 -7 0 -10 -17 -8 -45z"/>
<path d="M957 303 c-10 -9 -9 -61 1 -67 4 -2 8 13 7 35 0 21 0 39 -1 39 0 0
-4 -3 -7 -7z"/>
<path d="M1015 271 c0 -40 9 -46 18 -12 3 11 0 27 -7 36 -9 12 -11 8 -11 -24z"/>
<path d="M1050 264 c0 -27 4 -43 10 -39 6 3 10 24 10 46 0 21 -4 39 -10 39 -5
0 -10 -21 -10 -46z"/>
<path d="M1096 297 c3 -8 1 -18 -5 -21 -12 -8 7 -46 23 -46 4 0 3 7 -4 15 -6
8 -9 23 -5 34 3 10 1 22 -4 26 -6 3 -8 0 -5 -8z"/>
<path d="M1310 290 c0 -11 2 -20 4 -20 2 0 6 9 9 20 3 11 1 20 -4 20 -5 0 -9
-9 -9 -20z"/>
</g>
</svg>
